<svg width="500" height="500" viewBox="0 0 500 500" fill="none" xmlns="http://www.w3.org/2000/svg">
<path d="M303.734 458.47H270.742V76.0846C282.762 68.9548 290.908 55.977 290.908 40.9612C290.908 18.3387 272.608 0 250.014 0C227.421 0 209.12 18.3387 209.12 40.9612C209.12 55.9759 217.25 68.9629 229.283 76.0846V458.47H196.291C184.824 458.47 175.56 467.766 175.56 479.234C175.56 490.705 184.824 500 196.291 500H303.733C315.167 500 324.464 490.705 324.464 479.234C324.465 467.766 315.169 458.47 303.734 458.47Z" fill="#1D437D"/>
<path d="M202.707 109.137H49.4621C46.4336 109.137 43.5354 110.355 41.4133 112.513L3.27113 151.252C1.10431 153.442 -0.0625215 156.418 0.0025849 159.493C0.100244 162.567 1.42577 165.48 3.6933 167.565L41.4937 202.199C43.5669 204.105 46.2861 205.168 49.1233 205.168H202.706L202.707 109.137Z" fill="#1D437D"/>
<path d="M496.756 262.979L458.598 224.246C456.476 222.088 453.577 220.872 450.549 220.872H297.324V316.894H450.891C453.708 316.894 456.427 315.833 458.516 313.924L496.333 279.291C498.601 277.205 499.931 274.295 499.996 271.22C500.077 268.146 498.893 265.168 496.756 262.979Z" fill="#1D437D"/>
</svg>
