<svg width="500" height="500" viewBox="0 0 500 500" fill="none" xmlns="http://www.w3.org/2000/svg">
<path d="M414.584 325.091H180.567L185.612 316.549C192.953 304.152 205.11 295.553 219.045 292.928C232.976 290.304 247.33 293.895 258.496 302.81C263.284 306.609 270.118 305.752 273.831 300.911L334.197 222.129C364.39 182.743 357.667 125.758 319.204 94.8467C316.798 92.9315 313.772 92.0554 310.744 92.4294C307.732 92.8055 304.979 94.3886 303.109 96.8374L128.175 325.091H85.2897L92.4022 303.852L139.128 280.447C147.397 276.307 150.832 266.082 146.78 257.617L128.225 218.747L166.181 199.741C174.45 195.601 177.868 185.376 173.833 176.911L155.262 138.041L193.2 119.035C201.469 114.894 204.9 104.67 200.848 96.205L176.678 45.5937L180.469 6.69993C180.698 4.47491 179.69 2.21102 177.721 0.941979C174.939 -0.858628 171.258 0.000705061 169.517 2.84974L144.239 43.9611C142.417 46.9457 142.074 50.8169 143.687 54.2185L145.023 57.0014L163.578 95.8709L125.636 114.877C117.367 119.017 113.936 129.242 117.988 137.707L136.559 176.577L98.6036 195.583C90.3347 199.723 86.8995 209.948 90.9513 218.413L109.506 257.283L71.551 276.29C67.7433 278.214 64.6026 281.639 63.119 286.079L50.0339 325.091H26.4021C11.819 325.091 0 337.189 0 352.113V472.98C0 487.901 11.819 500 26.4021 500H414.584C461.751 500 500 460.848 500 412.546C500 364.245 461.751 325.091 414.584 325.091ZM253.352 192.867L300.928 130.776C303.775 127.059 309.016 126.426 312.632 129.324C316.243 132.233 316.897 137.599 314.05 141.307L266.474 203.398C264.811 205.548 262.372 206.664 259.897 206.664C258.108 206.664 256.287 206.071 254.754 204.847C251.142 201.941 250.505 196.576 253.352 192.867ZM416.668 458.056C392.124 458.056 372.218 437.685 372.218 412.546C372.218 387.416 392.124 367.044 416.668 367.044C441.211 367.044 461.102 387.416 461.102 412.546C461.102 437.686 441.211 458.056 416.668 458.056Z" fill="#1D437D"/>
</svg>
