<svg width="500" height="500" viewBox="0 0 500 500" fill="none" xmlns="http://www.w3.org/2000/svg">
<path d="M273.667 84.6708C308.682 84.6708 337.043 65.7142 337.043 42.3295C337.043 18.9533 308.682 0 273.667 0C238.711 0 210.313 18.9533 210.313 42.3295C210.313 65.7142 238.711 84.6708 273.667 84.6708Z" fill="#1D437D"/>
<path d="M500 218.828C500 206.763 485.363 196.983 467.302 196.983H356.746L294.395 137.834L294.6 136.828C296.825 125.529 292.221 114.102 281.828 105.065C271.43 96.0277 256.107 90.1227 239.194 88.6362C220.472 87.0063 202.72 91.0353 189.384 98.5875V49.3823C189.384 40.9174 179.113 34.0459 166.419 34.0459H102.82C90.1192 34.0459 79.8545 40.9174 79.8545 49.3823V231.637C79.8545 253.946 105.397 272.064 137.941 274.189L133.028 281.819L94.5089 379.051L7.76396 456.923C-5.16141 468.539 -1.59023 484.956 15.8104 493.601C22.8301 497.101 31.0558 498.791 39.2056 498.791C51.1881 498.791 62.985 495.139 70.7053 488.225L161.969 406.3C164.958 403.621 167.156 400.584 168.432 397.359L194.693 331.109L266.57 375.205L256.761 470.784C255.28 485.231 271.576 497.741 293.215 498.731C294.106 498.775 295.03 498.792 295.945 498.792C316.384 498.792 333.625 488.2 335.028 474.367L346.139 366.209C346.959 358.265 342.311 350.49 333.522 345.105L259.266 299.562L281.856 201.815L313.065 231.41C319.201 237.221 329.164 240.678 339.787 240.678H454.224L456.385 491.261C456.385 496.092 462.239 500 469.464 500C476.695 500 482.543 496.091 482.543 491.261L480.381 238.799C491.902 235.427 500 227.773 500 218.828Z" fill="#1D437D"/>
</svg>
