<svg width="500" height="500" viewBox="0 0 500 500" fill="none" xmlns="http://www.w3.org/2000/svg">
<path d="M495.06 460.391C457.684 386.799 343.063 159.239 343.063 159.239C340.319 153.778 335.99 150.246 331.239 149.57C326.46 148.926 321.746 151.127 318.256 155.685L288.221 194.979L217.741 12.163C214.883 4.78508 209.41 0.133192 203.404 0.020497C197.506 -0.350398 191.824 4.34285 188.836 11.611L2.19582 465.368C-0.742806 472.524 -0.726475 481.324 2.21215 488.467C5.18345 495.599 10.6432 500 16.5368 500H483.143C483.256 499.977 483.37 499.989 483.462 500C492.607 500 500 489.653 500 476.89C500 470.424 497.535 465.266 495.06 460.391ZM295.165 249.225L326.979 207.575L390.236 332.903L336.57 254.778C335.698 253.524 334.503 252.801 333.242 252.78C332.018 252.768 330.806 253.456 329.919 254.689L291.643 308.112C290.317 309.972 288.315 310.528 286.572 309.511C284.829 308.505 283.698 306.126 283.714 303.495L283.86 254.914C287.994 254.914 292.064 253.256 295.165 249.225ZM202.707 70.6404L243.743 177.046L212.929 215.031C211.977 216.218 210.7 216.793 209.443 216.635C208.166 216.476 206.987 215.585 206.213 214.185L186.461 179.156C185.525 177.498 184.069 176.572 182.57 176.686C181.05 176.799 179.663 177.937 178.873 179.722L149.012 246.269C148.076 248.333 146.394 249.507 144.65 249.281C142.907 249.057 141.387 247.476 140.743 245.208L136.739 231.034L202.707 70.6404Z" fill="#1D437D"/>
</svg>
