<svg width="500" height="500" viewBox="0 0 500 500" fill="none" xmlns="http://www.w3.org/2000/svg">
<path d="M496.619 252.489C483.337 226.503 443.404 148.545 443.404 148.545C434.633 131.436 408.592 122.757 385.208 129.174L347.295 139.572L287.058 147.459L224.516 103.526C219.514 99.9829 212.871 98.695 206.446 99.1979L144.346 6.0467C141.644 1.93751 134.891 0.218899 129.2 2.2287C123.574 4.2385 121.229 9.20598 123.975 13.3223L187.929 109.245C184.524 115.356 186.207 122.617 193.117 127.464L206.179 136.631L289.094 261.022L268.983 307.711L240.462 293.423C230.496 288.433 223.72 280.709 221.681 272.005L199.669 178.529C198.852 175.02 197.234 171.641 194.928 168.521L152.146 110.657L114.186 9.65396C112.035 3.95647 104.953 0 96.8658 0H17.9434C8.04177 0 0 5.88482 0 13.138V484.79C0 492.044 8.04177 497.926 17.942 497.926H393.749C400.175 497.926 406.155 495.398 409.341 491.297C412.53 487.204 412.486 482.163 409.207 478.104L344.72 398.212C343.302 396.461 342.128 394.614 341.178 392.71L316.044 341.831C323.242 338.824 329.001 333.969 331.702 327.736L332.407 326.052L445.264 495.34C447.208 498.292 451.238 500 455.446 500C457.108 500 458.814 499.733 460.409 499.158C466.034 497.148 468.38 492.181 465.634 488.064L408.945 403.025C409.384 403.041 409.807 403.188 410.274 403.188C412.842 403.188 415.499 402.97 418.111 402.515C436.404 399.355 447.722 385.942 443.402 372.562L424.314 313.441L485.257 286.487C497.219 281.187 504.715 268.332 496.619 252.489ZM253.612 169.963L263.978 177.257C268.229 180.256 273.899 181.885 279.703 181.885C281.031 181.885 282.359 181.795 283.688 181.624L358.454 171.826L386.996 227.577L338.656 220.275C321.558 217.698 304.594 225 299.347 237.18L298.969 238.03L253.612 169.963ZM342.329 303.051L354.997 273.585L375.791 276.729L367.931 280.213C355.264 285.805 349.017 296.722 352.407 307.241L359.248 328.483L342.329 303.051Z" fill="#1D437D"/>
<path d="M357.231 124.141C385.335 124.141 408.123 107.464 408.123 86.8866C408.123 66.3172 385.335 49.6401 357.231 49.6401C329.133 49.6401 306.321 66.3172 306.321 86.8866C306.322 107.464 329.133 124.141 357.231 124.141Z" fill="#1D437D"/>
</svg>
