<svg width="500" height="500" viewBox="0 0 500 500" fill="none" xmlns="http://www.w3.org/2000/svg">
<path d="M489.547 386.393L430.057 326.166C415.516 311.451 402.288 295.465 390.514 278.39L259.751 88.5786C257.548 85.3846 253.939 83.4761 250.083 83.4761C246.23 83.4761 242.621 85.3836 240.419 88.5786L109.651 278.357C97.8649 295.449 84.6202 311.459 70.0473 326.191L10.6234 386.311C1.89895 395.14 -1.71484 407.901 1.08554 420.053L17.3742 490.788C18.6225 496.183 23.3679 500 28.8387 500H206.562L250.099 271.911L293.625 500H471.312C476.786 500 481.528 496.183 482.777 490.788L499.065 420.127C501.869 407.973 498.271 395.222 489.547 386.393Z" fill="#1D437D"/>
<path d="M61.6595 121.796C80.5409 121.796 97.3626 113.179 108.664 99.6581C109.494 98.6676 109.652 97.2673 109.071 96.1122C108.489 94.9571 107.274 94.2709 105.978 94.3693C104.584 94.4821 103.162 94.54 101.736 94.54C67.6839 94.54 40.076 66.6136 40.076 32.1687C40.076 22.2752 42.4088 12.9477 46.4728 4.65114C47.0386 3.4878 46.879 2.09675 46.0339 1.12178C45.1928 0.13646 43.8679 -0.239246 42.6523 0.15302C17.9104 8.26226 0 31.702 0 59.4224C0 93.8694 27.6068 121.796 61.6595 121.796Z" fill="#1D437D"/>
<path d="M158.825 44.2211C159.232 44.6154 159.426 45.1899 159.329 45.7446L157.094 58.8809C156.98 59.5288 157.24 60.1839 157.772 60.569C158.293 60.9529 158.987 61.0026 159.573 60.7004L171.228 54.4935C171.732 54.2306 172.313 54.2306 172.817 54.4935L184.474 60.7004C185.058 61.0026 185.754 60.9529 186.274 60.569C186.807 60.1839 187.066 59.5288 186.952 58.8809L184.718 45.7446C184.62 45.1899 184.815 44.6165 185.221 44.2211L194.641 34.9175C195.097 34.4672 195.275 33.781 195.064 33.158C194.868 32.5349 194.336 32.0764 193.686 31.9863L180.669 30.0706C180.104 29.9888 179.633 29.6369 179.389 29.1297L173.545 17.1806C173.269 16.5907 172.671 16.2212 172.025 16.2212C171.375 16.2212 170.777 16.5917 170.502 17.1806L164.658 29.1297C164.414 29.6369 163.943 29.9888 163.378 30.0706L150.36 31.9863C149.709 32.0764 149.177 32.5349 148.982 33.158C148.771 33.781 148.95 34.4672 149.404 34.9175L158.825 44.2211Z" fill="#1D437D"/>
<path d="M340.873 55.4262C341.274 55.8184 341.453 56.3929 341.372 56.9497L339.137 70.0849C339.027 70.7318 339.283 71.388 339.819 71.772C340.336 72.156 341.035 72.2056 341.616 71.9034L353.275 65.6955C353.775 65.4326 354.36 65.4326 354.861 65.6955L366.52 71.9034C367.101 72.2056 367.796 72.156 368.316 71.772C368.848 71.3869 369.109 70.7318 368.995 70.0849L366.759 56.9497C366.682 56.3929 366.857 55.8195 367.263 55.4262L376.688 46.1225C377.139 45.6723 377.301 44.984 377.106 44.361C376.915 43.7379 376.379 43.2794 375.732 43.1894L362.712 41.2736C362.146 41.1918 361.675 40.8399 361.435 40.3327L355.588 28.3836C355.315 27.7937 354.714 27.4263 354.068 27.4263C353.418 27.4263 352.82 27.7937 352.544 28.3836L346.7 40.3327C346.456 40.8399 345.989 41.1918 345.42 41.2736L332.402 43.1894C331.756 43.2794 331.221 43.7379 331.024 44.361C330.833 44.984 330.992 45.6723 331.447 46.1225L340.873 55.4262Z" fill="#1D437D"/>
<path d="M421.008 207.441C421.41 207.836 421.605 208.41 421.507 208.965L419.271 222.102C419.158 222.749 419.418 223.405 419.954 223.789C420.47 224.174 421.165 224.223 421.75 223.921L433.406 217.713C433.911 217.45 434.492 217.45 434.996 217.713L446.652 223.921C447.236 224.223 447.932 224.174 448.452 223.789C448.985 223.405 449.245 222.749 449.131 222.102L446.895 208.965C446.797 208.41 446.993 207.837 447.399 207.441L456.823 198.139C457.274 197.688 457.453 197.001 457.242 196.379C457.047 195.756 456.514 195.298 455.864 195.208L442.847 193.292C442.281 193.209 441.809 192.858 441.566 192.35L435.723 180.401C435.445 179.811 434.849 179.441 434.202 179.441C433.552 179.441 432.955 179.811 432.679 180.401L426.834 192.35C426.591 192.858 426.123 193.209 425.554 193.292L412.537 195.208C411.886 195.298 411.355 195.756 411.159 196.379C410.948 197.002 411.127 197.688 411.582 198.139L421.008 207.441Z" fill="#1D437D"/>
</svg>
