<svg width="500" height="500" viewBox="0 0 500 500" fill="none" xmlns="http://www.w3.org/2000/svg">
<path d="M82.7027 384.146C76.0733 378.773 71.0817 369.431 68.6917 357.858C66.2965 346.276 66.7672 333.843 70.0102 322.853C72.0892 315.812 70.3294 307.318 66.078 303.869C61.8427 300.447 56.7048 303.373 54.6126 310.384C43.7653 347.136 52.9738 391.66 75.1696 409.646C76.3885 410.63 77.6786 411.09 78.9341 411.09C82.0978 411.09 85.1436 408.164 86.6522 403.133C88.7282 396.094 86.9511 387.6 82.7027 384.146Z" fill="#1D437D"/>
<path d="M490.303 274.018C485.311 257.096 478.552 242.464 470.716 229.949C470.716 229.949 406.748 95.1626 386.285 49.0748C367.572 6.92919 335.633 -13.578 306.706 9.82778C277.795 33.2504 265.225 89.0962 276.572 137.904L285.597 195.955H214.404L223.413 137.904C234.777 89.0962 222.207 33.2504 193.279 9.82778C164.37 -13.578 132.818 7.38872 113.734 49.0748C90.8621 99.0358 29.2856 229.949 29.2856 229.949C21.4495 242.464 14.6901 257.096 9.68119 274.018C-1.43144 311.685 -3.04075 354.273 5.18165 393.929C13.399 433.593 30.4568 465.577 53.2036 484.011C66.3118 494.622 80.3065 500 94.8187 500C131.346 500 163.986 466.272 180.041 411.962C183.805 399.182 186.335 385.947 187.873 372.605L236.235 408.149C245.003 414.593 255.015 414.593 263.789 408.149L312.13 372.605C313.668 385.947 316.18 399.182 319.966 411.962C335.999 466.257 368.677 500 405.2 500C419.695 500 433.689 494.622 446.798 484.011C469.545 465.579 486.601 433.593 494.82 393.929C503.042 354.273 501.433 311.685 490.303 274.018ZM149.24 387.016C138.993 421.691 118.137 443.239 94.8198 443.239C85.5807 443.239 76.6406 439.801 68.2708 433.011C53.7424 421.245 42.8605 400.83 37.6046 375.499C32.3649 350.181 33.3866 323.005 40.4826 298.962C50.7301 264.287 71.586 242.741 94.9204 242.741C104.159 242.741 113.1 246.179 121.468 252.967C151.433 277.247 163.904 337.376 149.24 387.016ZM249.994 336.684C236.986 336.684 226.424 319.21 226.424 297.658C226.424 276.11 236.986 258.635 249.994 258.635C263.015 258.635 273.56 276.11 273.56 297.658C273.56 319.21 263.015 336.684 249.994 336.684ZM462.38 375.499C457.142 400.83 446.243 421.245 431.732 433.011C423.345 439.801 414.439 443.239 405.2 443.239C381.864 443.239 361.009 421.689 350.762 387.016C336.099 337.378 348.557 277.247 378.55 252.967C386.919 246.179 395.843 242.741 405.082 242.741C428.4 242.741 449.256 264.289 459.502 298.962C466.616 323.005 467.635 350.181 462.38 375.499Z" fill="#1D437D"/>
<path d="M433.924 303.868C429.673 307.318 427.916 315.812 429.991 322.851C433.239 333.842 433.705 346.274 431.311 357.857C428.903 369.429 423.929 378.771 417.286 384.144C413.034 387.6 411.291 396.094 413.366 403.132C414.841 408.161 417.887 411.088 421.068 411.088C422.341 411.088 423.614 410.629 424.819 409.644C447.015 391.658 456.254 347.134 445.389 310.382C443.298 303.344 438.193 300.417 433.924 303.868Z" fill="#1D437D"/>
</svg>
