<svg width="500" height="500" viewBox="0 0 500 500" fill="none" xmlns="http://www.w3.org/2000/svg">
<path d="M450.438 92.0828H434.507L418.342 18.3688C415.984 7.58235 407.357 0 397.458 0H202.541C192.642 0 184.019 7.58235 181.657 18.3688L165.496 92.0828H137.159V69.6733C137.159 56.3522 127.526 45.5487 115.642 45.5487H73.2588C61.3787 45.5487 51.7419 56.3511 51.7419 69.6733V92.0817H49.5613C22.187 92.0828 0 116.964 0 147.65V444.434C0 475.117 22.187 500 49.5613 500H450.439C477.814 500 500 475.117 500 444.434V147.65C499.999 116.964 477.813 92.0828 450.438 92.0828ZM250.002 424.889C186.539 424.889 135.074 367.196 135.074 296.038C135.074 224.869 186.54 167.185 250.002 167.185C313.46 167.185 364.924 224.868 364.924 296.038C364.925 367.196 313.46 424.889 250.002 424.889Z" fill="#1D437D"/>
<path d="M243.245 196.108C197.834 196.108 160.889 237.541 160.889 288.474C160.889 298.792 168.344 307.159 177.556 307.159C186.768 307.159 194.223 298.793 194.223 288.474C194.223 258.151 216.209 233.481 243.244 233.481C252.456 233.481 259.911 225.116 259.911 214.794C259.912 204.475 252.457 196.108 243.245 196.108Z" fill="#1D437D"/>
</svg>
